<svg width="268" height="266" viewBox="0 0 268 266" fill="none" xmlns="http://www.w3.org/2000/svg">
<path d="M255 122.638C255 193.054 197.916 250.138 127.5 250.138C57.0837 250.138 0 193.054 0 122.638C0 52.2214 74.8537 92.4286 145.27 92.4286C215.686 92.4286 255 52.2214 255 122.638Z" fill="#2DDA93" fill-opacity="0.2"/>
<mask id="mask0_13_437" style="mask-type:alpha" maskUnits="userSpaceOnUse" x="2" y="0" width="266" height="266">
<ellipse cx="135" cy="133.278" rx="132.6" ry="132.525" fill="#C4C4C4"/>
</mask>
<g mask="url(#mask0_13_437)">
<g clip-path="url(#clip0_13_437)">
<path d="M160.682 124.142C160.682 124.142 161.03 117.175 162.425 114.179C168.14 108.878 171.87 99.8007 173.021 95.9249C175.6 91.7445 175.6 82.4085 175.53 79.0642C175.461 78.2978 175.461 77.8798 175.461 77.8798C175.112 71.7487 157.545 30.1545 125.617 40.9536C98.7083 50.0807 96.4775 69.2405 94.7347 86.5191C94.5256 88.2609 94.3861 90.0027 94.177 91.6749C93.9679 93.138 93.8285 94.5314 93.6193 95.9249C90.8309 115.085 68.4534 130.273 68.4534 130.273L83.5111 164.691C83.5111 164.691 126.035 170.822 127.081 170.962C128.127 171.101 126.872 161.974 126.872 161.974C126.872 161.974 122.828 159.117 121.922 157.167C121.713 156.679 121.783 155.843 121.992 154.867C122.619 152.08 124.502 148.04 124.92 147.203C124.99 147.134 124.99 147.064 124.99 147.064C124.99 147.064 131.891 150.757 136.98 151.105C142.069 151.453 144.3 142.535 144.3 142.535C153.711 139.261 149.877 135.429 152.107 134.035C154.268 132.642 160.682 124.142 160.682 124.142Z" fill="#F7AF8B"/>
<path d="M185.639 267.457H2.92449C2.92449 267.457 2.71536 222.797 5.22498 203.777C7.80431 184.757 24.7442 149.224 43.5664 138.982C61.9005 129.019 61.9702 128.183 69.9174 128.531C68.5928 128.601 66.1529 129.367 72.9149 135.986C81.4895 144.347 95.2924 154.101 95.2924 154.101C95.2924 154.101 116.345 174.236 127.429 161.347C127.917 160.093 128.405 158.56 128.615 156.609C129.033 152.986 128.196 149.99 127.639 148.318C129.869 149.294 131.821 149.921 133.215 150.269C136.213 151.035 137.747 151.384 139.141 150.687C140.744 149.851 141.999 147.9 142.208 147.552C142.766 146.716 142.696 146.437 142.905 146.298C144.578 144.974 156.917 152.777 164.586 165.666C173.718 180.994 174.554 200.781 174.554 200.781L177.761 220.011L179.365 229.416L179.853 232.343L181.456 242.097L181.526 242.654L182.641 249.482L182.85 250.736L183.617 255.474L185.639 267.457Z" fill="#48A2F5"/>
<path d="M12.8933 179.043C12.8933 179.043 27.8813 170.474 50.189 186.359L51.2347 188.798C51.2347 188.798 32.064 173.818 11.7082 181.761L12.8933 179.043Z" fill="white"/>
<path d="M4.31862 212.765C8.91958 211.789 14.3571 211.023 20.5614 210.953C34.7826 210.884 46.2153 214.716 53.4653 217.851C53.535 218.548 53.6744 219.244 53.7441 219.941C50.5374 218.687 47.0518 217.502 43.2177 216.527C27.672 212.625 13.8691 213.949 4.2489 215.97C4.31861 214.925 4.31862 213.88 4.31862 212.765Z" fill="white"/>
<path d="M3.41241 244.187C8.22252 243.211 13.9389 242.445 20.3523 242.375C36.4557 242.306 49.3524 246.834 57.4389 250.527C57.5784 251.502 57.6481 252.478 57.7875 253.453C53.8836 251.433 49.2827 249.482 43.9846 247.949C27.0447 243.072 12.1264 245.232 3.41241 247.392C3.41241 246.347 3.41241 245.302 3.41241 244.187Z" fill="white"/>
<path d="M50.189 186.359C50.189 186.359 87.903 161.068 170.302 180.925L170.999 183.642C170.999 183.642 104.355 163.367 51.2347 188.798L50.189 186.359Z" fill="white"/>
<path d="M56.3237 217.642C66.0136 214.716 76.7492 212.138 88.6001 210.396C125.478 204.961 157.196 209.56 179.574 215.134L180.271 217.851C168.838 214.785 155.384 212.138 140.326 210.884C105.61 208.097 76.6097 214.019 56.8116 219.941C56.6722 219.244 56.5328 218.408 56.3237 217.642Z" fill="white"/>
<path d="M60.7852 251.502C69.29 247.81 79.0496 244.326 90.2035 241.888C128.684 233.179 161.867 240.494 181.177 246.625L181.874 249.343C170.72 246.207 157.266 243.42 141.93 242.375C107.143 240.007 78.6314 247.461 60.5063 254.08C60.5761 253.175 60.6458 252.338 60.7852 251.502Z" fill="white"/>
<path d="M246.288 148.877C246.288 148.877 235.831 163.16 234.018 164.901C232.206 166.643 253.886 178 253.886 178L246.288 148.877Z" fill="#F2F2F3"/>
<path d="M136.074 236.385L194.562 151.664C194.562 151.664 245.521 173.123 252.074 182.877C252.074 182.877 253.468 180.856 258.557 181.135C258.557 181.135 247.682 169.151 251.586 149.922L252.492 150.34C252.562 154.311 252.91 158.91 253.956 164.065C255.281 170.963 257.372 176.676 259.324 181.135C235.901 211.164 212.408 241.262 188.985 271.291L136.074 236.385Z" fill="#2DDA93"/>
<path d="M195.468 152.082C195.468 152.082 201.045 146.717 201.603 146.508C202.16 146.299 247.752 169.988 250.052 174.168C250.052 174.168 240.083 156.262 246.567 148.529L251.516 149.922C251.516 149.922 253.398 170.684 255.629 174.168C257.86 177.651 258.487 181.135 258.487 181.135L251.307 183.992L195.468 152.082Z" fill="white"/>
<path d="M182.78 241.818C179.365 243.211 176.716 244.187 176.228 244.326C176.158 244.326 179.504 243.49 182.92 242.375C197.629 237.777 201.533 235.548 203.554 237.498C204.809 238.683 204.879 241.121 204.042 242.445C203.136 243.838 201.533 243.49 197.768 244.256C194.841 244.814 191.285 246.277 184.105 249.203C183.268 249.552 182.85 249.621 182.432 249.9C181.107 250.875 173.16 254.777 172.115 255.334C173.16 254.847 180.759 251.572 184.314 250.457C184.454 250.388 184.942 250.179 185.708 250.109C186.266 250.039 186.893 249.97 187.381 250.179C188.288 250.597 188.776 251.99 188.566 252.965C188.218 254.498 186.196 255.195 185.22 255.543C181.526 256.937 178.249 259.375 174.485 260.629C170.86 261.884 165.771 263.834 159.357 267.248H134.261C130.566 262.371 127.429 253.941 129.103 240.773C129.103 240.773 140.466 227.117 144.439 224.679C144.439 224.679 141.581 227.048 142.905 228.302C144.23 229.556 161.449 226.908 177.622 220.359C178.11 220.15 178.667 219.941 179.155 219.732C191.564 214.716 194.631 212.486 197.559 213.949C197.838 214.089 199.79 215.064 199.93 216.666C200.417 221.265 185.708 227.117 182.292 228.441C182.223 228.441 181.595 228.72 180.689 229.068C175.6 231.158 169.605 233.875 171.975 235.338C172.951 235.896 176.646 234.293 181.177 232.064C181.177 232.064 189.682 226.908 202.648 223.425C203.973 223.076 206.343 222.449 207.946 223.773C208.992 224.609 209.619 226.142 209.41 227.466C208.922 230.531 204.252 230.67 195.817 234.851C189.752 237.847 189.194 239.17 182.78 241.818Z" fill="#F7AF8B"/>
<path opacity="0.4" d="M52.141 202.175C52.141 202.175 63.0857 242.724 60.367 254.498C60.367 254.498 97.2444 251.293 99.266 253.244C101.288 255.195 66.0833 254.847 57.9968 255.961C58.0665 255.961 52.7684 209.56 52.141 202.175Z" fill="black"/>
<path d="M134.61 267.457H100.59C99.8235 261.675 98.9173 254.011 99.3355 253.175C100.033 251.781 120.946 245.929 125.896 241.121C129.939 237.22 129.59 255.195 134.61 267.457Z" fill="#4194E0"/>
<path d="M121.783 156.261C121.783 153.797 123.874 149.294 124.92 146.855L127.708 148.248C130.497 154.38 128.754 161.138 126.663 162.183C125.036 160.906 121.783 158.699 121.783 156.261Z" fill="#F7AF8B"/>
<path d="M127.569 148.248C121.086 141.63 112.999 132.851 108.886 126.302C108.886 133.269 122.131 150.571 128.754 158.351C129.702 152.498 128.359 149.177 127.569 148.248Z" fill="black" fill-opacity="0.2"/>
<path d="M199.965 175.119L196.521 181.266L197.808 181.987L198.894 180.048L200.044 180.692C201.339 181.417 202.711 181.077 203.417 179.816C204.126 178.551 203.727 177.225 202.466 176.519L199.965 175.119ZM200.681 176.858L201.555 177.347C202.292 177.759 202.498 178.389 202.107 179.088C201.713 179.791 201.063 179.942 200.326 179.529L199.457 179.043L200.681 176.858ZM206.487 185.445L203.799 183.94L206.646 178.858L205.359 178.138L201.915 184.285L205.891 186.51L206.487 185.445ZM210.68 189.19L212.048 189.956L213.353 182.612L211.84 181.765L206.261 186.717L207.582 187.457L208.886 186.228L211.047 187.437L210.68 189.19ZM211.901 183.344L211.931 183.361L211.309 186.319L209.703 185.42L211.901 183.344ZM213.91 190.998L216.165 186.972L216.204 186.994L216.824 192.629L217.89 193.225L221.333 187.078L220.102 186.389L217.859 190.393L217.825 190.374L217.196 184.763L216.122 184.162L212.678 190.309L213.91 190.998ZM221.673 195.342L224.523 190.256L226.304 191.253L226.898 190.192L222.054 187.481L221.459 188.542L223.236 189.536L220.386 194.622L221.673 195.342Z" fill="white"/>
<path d="M156.84 108.333C158.4 114.512 160.48 121.668 160.48 123.728C160.48 125.788 154.24 125.616 151.12 125.273" stroke="black" stroke-opacity="0.2"/>
<path d="M151.64 134.837C150.08 135.011 146.128 134.941 142.8 133.278" stroke="#B55F34"/>
<path d="M162.04 100.537C163.947 100.017 168.904 100.641 171.4 103.135" stroke="black" stroke-width="1.5"/>
<path d="M167.76 107.293C167.76 108.333 166.72 108.852 166.2 109.892C165.051 109.892 164.64 109.481 164.64 108.333C164.64 107.184 165.571 106.254 166.72 106.254C167.76 106.254 167.76 107.227 167.76 107.293Z" fill="black"/>
</g>
</g>
<defs>
<clipPath id="clip0_13_437">
<rect width="357.76" height="228.245" fill="white" transform="translate(-29.84 39.2118)"/>
</clipPath>
</defs>
</svg>
