<svg width="255" height="256" viewBox="0 0 255 256" fill="none" xmlns="http://www.w3.org/2000/svg">
<path d="M0 127.638C0 198.054 57.0837 255.138 127.5 255.138C197.916 255.138 255 198.054 255 127.638C255 57.2214 180.146 97.4286 109.73 97.4286C39.3137 97.4286 0 57.2214 0 127.638Z" fill="#2DDA93" fill-opacity="0.2"/>
<mask id="mask0_13_279" style="mask-type:alpha" maskUnits="userSpaceOnUse" x="0" y="0" width="255" height="255">
<circle cx="127.5" cy="127.5" r="127.5" transform="matrix(-1 0 0 1 255 0)" fill="#C4C4C4"/>
</mask>
<g mask="url(#mask0_13_279)">
<path d="M59.5118 216.952C62.8618 190.837 55.9041 163.64 40.391 142.367L38.7418 143.603C53.9456 164.465 60.8003 191.095 57.5018 216.695L59.5118 216.952Z" fill="#456C0A"/>
<path d="M58.0172 218.189L60.0788 218.137C59.4088 194.134 58.7388 169.358 65.8511 145.921C66.7788 142.779 67.9642 141.182 69.5619 140.873L69.2011 138.864C66.0057 139.483 64.6657 142.831 63.8926 145.303C56.6772 169.049 57.3472 194.031 58.0172 218.189Z" fill="#456C0A"/>
<path d="M54.8734 215.407C57.0895 201.397 52.9149 186.51 43.7926 175.642C42.7618 174.406 41.5249 173.118 39.9787 172.448L39.1541 174.303C40.288 174.818 41.2157 175.745 42.2464 176.981C51.008 187.386 55.028 201.603 52.8634 215.098L54.8734 215.407Z" fill="#456C0A"/>
<path d="M59.3057 220.198H61.3673C61.2642 199.13 64.975 182.544 72.6542 169.564C73.9942 167.246 75.7465 164.671 78.1688 162.816C80.5912 161.013 83.4773 160.292 85.8996 160.962L86.4666 158.953C83.4773 158.129 79.9212 158.953 76.9835 161.116C74.2519 163.125 72.3965 165.958 70.9534 168.431C62.965 181.875 59.2026 198.77 59.3057 220.198Z" fill="#456C0A"/>
<path d="M57.1411 218.704C57.3988 205.002 57.7596 187.953 66.2119 175.024L64.5111 173.891C55.7496 187.283 55.3888 204.693 55.0796 218.652L57.1411 218.704Z" fill="#456C0A"/>
<path d="M24.5688 206.187H92.4451L86.5697 262.332H30.3926L24.5688 206.187Z" fill="#7C5327"/>
<path d="M22.1465 214.016H94.8158L95.4858 206.187H21.528L22.1465 214.016Z" fill="#936134"/>
<path d="M24.2079 183.059C26.8879 168.688 41.4733 164.928 41.4733 164.928C45.4933 162.971 50.5441 161.838 54.2549 164.31C56.4711 165.804 57.7595 168.328 58.8934 170.749C60.0272 173.17 61.058 175.694 61.1095 178.372C61.1611 181.05 60.0272 183.883 57.6564 185.12C55.698 179.917 51.3687 175.694 46.1633 173.839C49.9257 176.878 52.7603 181.102 54.1518 185.738C54.4095 186.613 54.6157 187.541 54.358 188.416C54.1518 189.137 53.6364 189.704 53.1211 190.219C50.0287 193.361 46.2149 195.731 42.0403 197.224C40.958 194.597 39.3087 192.176 37.1956 190.219C38.3295 192.589 38.8964 195.216 38.7418 197.842C38.6903 198.409 38.6387 198.976 38.4326 199.491C38.1233 200.16 37.5564 200.676 36.9379 201.088C33.2272 203.663 28.331 203.302 23.8471 203.457C16.2194 203.766 8.64327 205.929 1.99479 209.741C1.94326 209.741 21.4764 197.43 24.2079 183.059Z" fill="#548611"/>
<path d="M4.31393 194.803C4.62317 193.413 5.24163 192.125 5.91163 190.889C8.23087 186.407 11.2716 182.287 14.9309 178.836C13.7455 179.454 12.6116 180.072 11.4263 180.741C14.7763 171.058 23.6924 163.486 33.794 161.786C36.8348 161.271 40.9063 161.941 41.5248 164.98C41.5248 164.98 26.9394 168.74 24.2078 183.111C21.4763 197.482 1.94317 209.793 1.94317 209.793C3.02548 206.96 3.64394 203.972 3.79855 200.985C3.95317 198.873 3.85009 196.812 4.31393 194.803Z" fill="#456C0A"/>
<path d="M104.608 173.736C104.763 161.271 93.1666 155.656 93.1666 155.656C90.1258 153.338 86.1058 151.536 82.6012 153.029C80.4881 153.905 78.9935 155.811 77.6534 157.665C76.3134 159.52 75.025 161.425 74.5611 163.692C74.0973 165.907 74.5611 168.482 76.3134 169.924C78.7873 165.907 83.1165 163.074 87.8065 162.456C84.1473 164.361 81.055 167.401 79.1481 171.058C78.7873 171.727 78.4265 172.5 78.5296 173.273C78.5811 173.891 78.9419 174.457 79.3027 174.972C81.3642 178.114 84.1473 180.741 87.3942 182.647C88.7342 180.638 90.5381 178.887 92.5996 177.599C91.2596 179.351 90.3319 181.514 90.0227 183.729C89.9712 184.193 89.9196 184.708 90.0227 185.171C90.1773 185.789 90.5896 186.304 91.0019 186.768C93.6819 189.55 97.8566 190.065 101.567 190.94C107.907 192.486 113.885 195.525 118.833 199.851C118.781 199.8 104.505 186.201 104.608 173.736Z" fill="#456C0A"/>
<path d="M119.297 186.871C119.245 185.686 118.987 184.45 118.627 183.317C117.441 179.196 115.586 175.23 113.112 171.727C113.988 172.448 114.864 173.17 115.74 173.891C114.555 165.237 108.37 157.408 100.227 154.266C97.7535 153.339 94.2489 153.235 93.2181 155.656C93.2181 155.656 104.814 161.271 104.66 173.736C104.505 186.201 118.781 199.8 118.781 199.8C118.369 197.276 118.317 194.649 118.678 192.125C118.936 190.374 119.348 188.622 119.297 186.871Z" fill="#548611"/>
<path d="M75.1795 147.363C76.3134 135.053 65.3357 128.614 65.3357 128.614C62.5526 126.09 58.6872 124.03 55.131 125.163C52.9664 125.884 51.3172 127.584 49.8741 129.335C48.431 131.035 46.9879 132.838 46.3179 135.001C45.6479 137.165 45.9572 139.74 47.5549 141.285C50.3379 137.525 54.8218 135.104 59.5118 134.795C55.7495 136.392 52.451 139.173 50.2864 142.625C49.8741 143.294 49.4618 143.964 49.5133 144.736C49.5133 145.355 49.8226 145.921 50.1318 146.488C51.9356 149.733 54.461 152.566 57.5018 154.729C58.9964 152.823 60.9034 151.278 63.068 150.145C61.5734 151.793 60.5426 153.802 60.0272 155.965C59.9241 156.429 59.821 156.893 59.9241 157.356C60.0272 157.974 60.388 158.541 60.7487 159.005C63.171 161.941 67.2426 162.765 70.8503 163.949C76.9834 165.958 82.6526 169.461 87.1365 174.097C87.0849 174.148 74.0457 159.623 75.1795 147.363Z" fill="#66990C"/>
<path d="M88.5796 161.477C88.6312 160.292 88.425 159.108 88.2189 157.923C87.3942 153.751 85.8481 149.733 83.6835 146.024C84.5081 146.797 85.2812 147.569 86.1058 148.342C85.6419 139.74 80.1788 131.55 72.345 127.79C69.9742 126.657 66.5211 126.296 65.3357 128.614C65.3357 128.614 76.3135 135.053 75.1796 147.363C74.0458 159.674 87.0335 174.2 87.0335 174.2C86.8273 171.676 86.9819 169.1 87.5489 166.628C87.9612 164.877 88.5281 163.228 88.5796 161.477Z" fill="#548611"/>
<path d="M70.0257 187.644C73.8911 175.9 64.6142 167.194 64.6142 167.194C62.4496 164.104 59.1511 161.219 55.4403 161.58C53.1726 161.786 51.2142 163.125 49.3588 164.464C47.5549 165.804 45.7511 167.246 44.6172 169.203C43.4834 171.161 43.1741 173.736 44.4111 175.59C47.9672 172.551 52.8634 171.161 57.5019 171.933C53.4819 172.654 49.668 174.612 46.7303 177.496C46.1634 178.011 45.648 178.63 45.4934 179.402C45.3903 180.02 45.4934 180.638 45.6995 181.257C46.7303 184.811 48.5342 188.159 51.0595 190.889C52.9149 189.395 55.1311 188.262 57.5019 187.644C55.698 188.931 54.2034 190.683 53.2757 192.64C53.0695 193.052 52.8634 193.516 52.8634 193.979C52.8119 194.597 53.018 195.216 53.3272 195.782C55.028 199.182 58.7903 200.882 62.0373 202.839C67.6034 206.135 72.2934 210.823 75.6434 216.334C75.6434 216.437 66.2119 199.388 70.0257 187.644Z" fill="#93C91C"/>
<path d="M79.9727 204.384C80.2819 203.251 80.385 202.015 80.385 200.83C80.4881 196.555 79.8696 192.28 78.6327 188.262C79.2512 189.189 79.8696 190.116 80.4366 191.095C81.9312 182.544 78.375 173.376 71.6235 167.967C69.5619 166.37 66.2634 165.186 64.6142 167.195C64.6142 167.195 73.8912 175.9 70.0258 187.644C66.1604 199.388 75.6435 216.437 75.6435 216.437C76.0042 213.913 76.7258 211.441 77.8596 209.175C78.5812 207.578 79.5089 206.084 79.9727 204.384Z" fill="#71B70B"/>
<path d="M27.7127 147.106C28.4343 136.134 38.9997 131.962 38.9997 131.962C41.8343 130.108 45.4935 128.82 48.4828 130.365C50.2866 131.293 51.472 133.044 52.5543 134.795C53.5851 136.495 54.6158 138.298 54.8735 140.307C55.1312 142.316 54.5643 144.53 52.9151 145.664C51.0081 141.955 47.3489 139.173 43.2774 138.298C46.3697 140.255 48.8951 143.14 50.3381 146.488C50.5958 147.106 50.8535 147.827 50.7504 148.497C50.6474 149.063 50.3381 149.527 49.9774 149.939C47.9674 152.566 45.2874 154.678 42.3497 156.172C41.3189 154.266 39.8243 152.617 38.072 151.381C39.1543 153.029 39.7727 154.987 39.9274 156.944C39.9789 157.356 39.9789 157.82 39.8243 158.18C39.6697 158.695 39.2573 159.159 38.845 159.52C36.3196 161.786 32.6089 161.941 29.2589 162.456C23.5381 163.383 18.075 165.649 13.4881 169.1C13.4881 169.049 26.9912 158.077 27.7127 147.106Z" fill="#93C91C"/>
<path d="M13.9004 157.665C14.0034 156.584 14.3642 155.553 14.725 154.575C16.065 151.021 17.9719 147.672 20.3942 144.736C19.5696 145.303 18.745 145.87 17.9719 146.436C19.5696 138.864 25.5996 132.426 32.9696 130.262C35.1858 129.593 38.3296 129.747 38.9996 131.962C38.9996 131.962 28.4342 136.083 27.7127 147.106C26.9912 158.077 13.488 169.1 13.488 169.1C14.055 166.885 14.2611 164.619 14.1065 162.353C14.0034 160.756 13.7457 159.211 13.9004 157.665Z" fill="#71B70B"/>
<path d="M99.0799 143.469L143.282 117.477L178.613 177.494L134.411 203.485L99.0799 143.469Z" fill="#5F3916"/>
<path d="M104.217 145.556L143.003 122.749L173.836 175.124L135.05 197.931L104.217 145.556Z" fill="#F2F2F3"/>
<path d="M118.699 141.239L142.701 127.125C142.825 127.052 142.984 127.093 143.057 127.217C143.13 127.341 143.088 127.5 142.965 127.573L118.962 141.686C118.838 141.759 118.679 141.718 118.606 141.594C118.534 141.471 118.575 141.311 118.699 141.239Z" fill="#191919"/>
<g clip-path="url(#clip0_13_279)">
<path d="M167.101 48.2753C166.993 48.7471 166.831 49.2606 166.717 49.7802C166.015 52.6525 165.258 56.3431 165.185 56.9164C165.149 57.5914 163.273 62.0631 163.373 63.9687C163.472 65.8743 164.413 67.6436 163.767 68.9211C163.12 70.1986 159.252 77.3798 158.672 78.1317C158.092 78.8836 157.157 81.2897 159.975 82.0339C162.746 82.772 162.191 82.168 162.573 82.9928C162.573 82.9928 162.011 83.2131 161.371 83.6663C160.57 84.2448 159.721 85.2054 159.737 86.6152C159.799 89.1957 161.967 89.7121 161.727 90.4585C161.487 91.2048 161.276 92.8771 161.562 93.6898C161.889 94.5564 161.421 96.7301 160.995 97.7928C160.57 98.8556 155.421 113.496 164.989 114.219C174.552 114.989 180.497 108.653 181.819 111.635C181.891 111.838 182.01 112.047 182.123 112.304C183.392 115.328 184.796 119.971 183.748 121.732C182.635 123.63 181.212 124.519 181.212 124.519L201.479 125.087L218.959 108.897C218.959 108.897 216.215 101.027 217.927 93.2338C218.149 92.2425 218.419 91.2572 218.779 90.3318C218.779 90.3318 227.946 67.3158 226.563 55.9767C225.179 44.6376 216.209 33.4086 201.087 30.9169C185.966 28.4253 163.304 37.214 161.067 39.5528C158.842 41.796 167.858 45.3613 167.101 48.2753Z" fill="#F7B492"/>
<path d="M167.102 48.2743C166.994 48.7461 166.832 49.2596 166.717 49.7791C170.249 49.1085 173.533 49.6203 173.533 49.6203C173.533 49.6203 177.331 50.294 178.972 52.2971C180.606 54.348 179.11 61.1976 181.724 62.7897C184.339 64.3818 182.553 64.302 183.614 70.5036C184.628 76.6992 179.326 79.8645 177.657 81.547C175.989 83.2294 171.109 87.6616 170.35 87.9055C169.591 88.1495 166.688 88.4625 165.52 86.1792C164.775 84.7746 162.781 84.0374 161.365 83.7131C160.564 84.2915 159.715 85.2522 159.731 86.6619C159.793 89.2425 161.961 89.7589 161.721 90.5052C161.481 91.2516 161.27 92.9239 161.556 93.7366C161.883 94.6031 161.415 96.7769 160.989 97.8396C160.564 98.9023 155.415 113.543 164.983 114.265C174.546 115.036 180.491 108.699 181.813 111.682C181.885 111.885 182.004 112.094 182.117 112.351C190.624 106.484 192.914 95.2687 193.585 93.4118C194.323 91.4176 191.169 81.7966 191.561 78.6909C191.953 75.5853 194.282 71.365 198.589 71.0836C202.896 70.8022 205.359 74.3654 207.149 80.1737C208.149 83.4065 213.47 88.9324 217.939 93.1372C218.161 92.1459 218.431 91.1606 218.791 90.2352C218.791 90.2352 227.959 67.2193 226.575 55.8801C225.191 44.541 216.221 33.312 201.1 30.8204C185.978 28.3287 163.316 37.1174 161.079 39.4562C158.843 41.795 167.858 45.3603 167.102 48.2743Z" fill="black"/>
<path d="M182.859 62.1551L181.793 61L183.392 61.4443C183.303 61.7108 183.214 62.0662 182.859 62.1551Z" fill="#2A2A3D"/>
<path d="M187.746 63.7544C187.835 64.0209 187.923 64.1986 187.746 64.4652C187.568 64.7317 187.39 64.8206 187.124 64.8206C187.124 64.8206 187.124 64.8206 187.035 64.8206C187.035 64.9983 186.857 65.2648 186.679 65.4425C186.591 65.5314 186.413 65.5314 186.324 65.5314C186.235 65.5314 186.235 65.5314 186.146 65.5314L182.859 62.155C183.125 62.0662 183.303 61.7996 183.392 61.4442L188.101 62.6881L188.279 62.777C188.279 62.9547 188.545 63.2212 188.456 63.4878C188.368 63.7543 188.101 63.8432 187.923 63.932L187.746 63.7544Z" fill="#F8CEA0"/>
<path d="M214.578 77.615L216 78.4146C216 78.77 215.822 79.2143 215.733 79.5697L214.312 78.77C214.401 78.5035 214.578 78.1481 214.578 77.7927C214.578 77.7038 214.578 77.615 214.578 77.615Z" fill="#D72427"/>
<path d="M214.312 78.77L215.733 79.5697C215.645 79.7474 215.556 79.9251 215.467 80.1028C215.378 80.2805 215.2 80.4582 215.111 80.6359L213.69 79.8362C213.868 79.6585 213.956 79.4808 214.134 79.2143C214.134 79.0366 214.223 78.8589 214.312 78.77Z" fill="#D72427"/>
<path d="M213.69 79.7474L215.111 80.547C214.845 80.8136 214.578 81.0801 214.223 81.2578L212.801 80.4582C212.89 80.3693 212.979 80.2805 213.068 80.2805C213.334 80.1028 213.512 79.9251 213.69 79.7474Z" fill="#D72427"/>
<path d="M213.868 77.1707L214.578 77.615C214.578 77.7038 214.578 77.7038 214.578 77.7927C214.49 78.1481 214.401 78.4146 214.312 78.77L213.69 78.4146C213.779 78.2369 213.779 78.0592 213.868 77.8815C213.868 77.7038 213.868 77.3484 213.868 77.1707Z" fill="#EDECF1"/>
<path d="M213.068 79.392L213.69 79.7474C213.512 79.9251 213.335 80.1028 213.157 80.2805C213.068 80.3693 212.979 80.4582 212.89 80.4582L212.357 80.1916C212.535 80.0139 212.801 79.6585 213.068 79.392Z" fill="#EDECF1"/>
<path d="M213.601 78.3258L214.223 78.6812C214.134 78.8589 214.134 78.9477 214.045 79.1254C213.956 79.3031 213.779 79.5697 213.601 79.7474L212.979 79.392C213.068 79.3031 213.157 79.1254 213.246 79.0366C213.423 78.8589 213.512 78.5923 213.601 78.3258Z" fill="#EDECF1"/>
<path d="M187.035 64.7317C187.124 64.7317 187.124 64.7317 187.035 64.7317L213.068 79.392C212.89 79.6585 212.624 80.0139 212.268 80.1916L186.324 65.5314C186.413 65.5314 186.591 65.5314 186.679 65.4425C186.946 65.2648 187.124 64.9094 187.035 64.7317Z" fill="#F4D331"/>
<path d="M188.19 62.6882L213.868 77.1707C213.868 77.4373 213.868 77.7038 213.779 77.8815C213.69 78.0592 213.69 78.2369 213.601 78.4146L187.834 63.8432C188.012 63.7544 188.279 63.6655 188.368 63.399C188.456 63.1324 188.279 62.8659 188.19 62.6882Z" fill="#F4D331"/>
<path d="M187.835 63.7543L213.601 78.3258C213.512 78.5923 213.423 78.77 213.246 79.0366C213.157 79.1254 213.068 79.3031 212.979 79.392L187.124 64.7317C187.39 64.7317 187.657 64.6428 187.746 64.3763C187.923 64.1097 187.835 63.932 187.746 63.6655L187.835 63.7543Z" fill="#2A2A3D"/>
<path d="M207.119 79.0198C207.864 82.5828 203.503 87.0144 201.007 89.6534C202.223 89.3061 206.76 84.3661 208.766 81.9846C208.54 81.6545 207.821 79.7511 207.119 79.0198Z" fill="black" fill-opacity="0.4"/>
<path d="M195.74 78.8695C196.851 77.2069 200.404 75.6125 202.041 75.023C194.83 75.0131 193.963 79.9672 194.431 82.4455C194.404 81.9462 194.628 80.5321 195.74 78.8695Z" fill="black" fill-opacity="0.4"/>
<path d="M195.5 72C198 70 204.4 71.3 206 76.5L195.5 72Z" fill="#F7B492"/>
<path d="M166 64.5C166 65.3284 165.328 66 164.5 66C163.672 66 163.5 65.3284 163.5 64.5C163.5 63.6716 163.171 63 164 63C164.828 63 166 63.6716 166 64.5Z" fill="black"/>
<path d="M165 58C166.5 57.6667 170.3 57.5 173.5 59.5" stroke="black" stroke-width="1.5"/>
</g>
<path d="M129.234 137.655L143.839 129.067C143.962 128.994 144.122 129.036 144.194 129.159C144.267 129.283 144.226 129.442 144.102 129.515L129.498 138.103C129.374 138.175 129.215 138.134 129.142 138.01C129.069 137.887 129.11 137.727 129.234 137.655Z" fill="#191919"/>
<path d="M110.079 146.372L112.084 145.193C112.322 145.053 112.629 145.133 112.769 145.371L113.949 147.374C114.089 147.612 114.009 147.919 113.771 148.059L111.766 149.238C111.528 149.378 111.222 149.298 111.081 149.06L109.902 147.057C109.762 146.819 109.841 146.512 110.079 146.372Z" stroke="black" stroke-width="0.5" stroke-miterlimit="10"/>
<path d="M121.685 146.309L145.688 132.195C145.812 132.123 145.971 132.164 146.044 132.287C146.117 132.411 146.075 132.57 145.952 132.643L121.949 146.757C121.825 146.83 121.666 146.788 121.593 146.665C121.52 146.541 121.562 146.382 121.685 146.309Z" fill="#191919"/>
<path d="M132.174 142.646L146.779 134.058C146.902 133.985 147.062 134.026 147.135 134.15C147.207 134.274 147.166 134.433 147.042 134.506L132.438 143.094C132.314 143.166 132.155 143.125 132.082 143.001C132.009 142.878 132.05 142.718 132.174 142.646Z" fill="#191919"/>
<path d="M113.019 151.363L115.024 150.184C115.262 150.044 115.569 150.124 115.709 150.362L116.889 152.365C117.029 152.603 116.949 152.91 116.711 153.05L114.706 154.229C114.468 154.369 114.161 154.289 114.021 154.051L112.842 152.048C112.702 151.81 112.781 151.503 113.019 151.363Z" stroke="black" stroke-width="0.5" stroke-miterlimit="10"/>
<path d="M125.338 152.506L149.341 138.393C149.465 138.32 149.624 138.361 149.697 138.485C149.769 138.608 149.728 138.768 149.604 138.84L125.602 152.954C125.478 153.027 125.319 152.986 125.246 152.862C125.173 152.738 125.215 152.579 125.338 152.506Z" fill="#191919"/>
<path d="M135.874 148.923L150.479 140.335C150.602 140.262 150.762 140.303 150.834 140.427C150.907 140.551 150.866 140.71 150.742 140.783L136.138 149.37C136.014 149.443 135.855 149.402 135.782 149.278C135.709 149.155 135.75 148.995 135.874 148.923Z" fill="#191919"/>
<path d="M116.719 157.64L118.724 156.461C118.962 156.321 119.269 156.401 119.409 156.639L120.589 158.642C120.729 158.88 120.649 159.187 120.411 159.327L118.406 160.506C118.168 160.646 117.861 160.566 117.721 160.328L116.542 158.325C116.402 158.087 116.481 157.78 116.719 157.64Z" stroke="black" stroke-width="0.5" stroke-miterlimit="10"/>
<path d="M128.881 158.492L152.884 144.378C153.007 144.305 153.167 144.347 153.239 144.47C153.312 144.594 153.271 144.753 153.147 144.826L129.145 158.94C129.021 159.013 128.862 158.971 128.789 158.848C128.716 158.724 128.757 158.565 128.881 158.492Z" fill="#191919"/>
<path d="M139.417 154.908L154.021 146.321C154.145 146.248 154.304 146.289 154.377 146.413C154.45 146.536 154.409 146.696 154.285 146.768L139.68 155.356C139.557 155.429 139.397 155.388 139.324 155.264C139.252 155.14 139.293 154.981 139.417 154.908Z" fill="#191919"/>
<path d="M120.215 163.546L122.22 162.367C122.458 162.227 122.765 162.307 122.905 162.545L124.084 164.548C124.224 164.786 124.145 165.093 123.907 165.233L121.902 166.412C121.664 166.552 121.357 166.472 121.217 166.234L120.038 164.231C119.897 163.993 119.977 163.686 120.215 163.546Z" stroke="black" stroke-width="0.5" stroke-miterlimit="10"/>
<path d="M132.67 164.84L156.673 150.726C156.797 150.653 156.956 150.695 157.029 150.818C157.102 150.942 157.06 151.101 156.937 151.174L132.934 165.288C132.81 165.36 132.651 165.319 132.578 165.196C132.505 165.072 132.547 164.913 132.67 164.84Z" fill="#191919"/>
<path d="M143.159 161.176L157.763 152.589C157.887 152.516 158.046 152.557 158.119 152.681C158.192 152.805 158.151 152.964 158.027 153.037L143.423 161.624C143.299 161.697 143.14 161.656 143.067 161.532C142.994 161.408 143.035 161.249 143.159 161.176Z" fill="#191919"/>
<path d="M124.004 169.894L126.009 168.715C126.247 168.575 126.554 168.654 126.694 168.892L127.874 170.896C128.014 171.134 127.934 171.441 127.696 171.58L125.691 172.76C125.453 172.9 125.146 172.82 125.006 172.582L123.827 170.578C123.687 170.34 123.766 170.034 124.004 169.894Z" stroke="black" stroke-width="0.5" stroke-miterlimit="10"/>
<path d="M137.337 172.871L161.34 158.757C161.463 158.685 161.623 158.726 161.696 158.85C161.768 158.973 161.727 159.133 161.603 159.205L137.601 173.319C137.477 173.392 137.318 173.351 137.245 173.227C137.172 173.103 137.214 172.944 137.337 172.871Z" fill="#191919"/>
<path d="M147.095 168.436L162.148 159.584L162.71 160.54L147.658 169.391L147.095 168.436Z" fill="#191919"/>
<path d="M128.671 177.925L130.676 176.746C130.914 176.606 131.221 176.686 131.361 176.924L132.54 178.928C132.68 179.165 132.601 179.472 132.363 179.612L130.358 180.791C130.12 180.931 129.813 180.851 129.673 180.613L128.494 178.61C128.353 178.372 128.433 178.065 128.671 177.925Z" stroke="black" stroke-width="0.5" stroke-miterlimit="10"/>
<path d="M141.806 180.359L165.808 166.246C165.932 166.173 166.091 166.214 166.164 166.338C166.237 166.461 166.196 166.621 166.072 166.693L142.069 180.807C141.946 180.88 141.786 180.839 141.714 180.715C141.641 180.591 141.682 180.432 141.806 180.359Z" fill="#191919"/>
<path d="M152.117 176.907L167.17 168.056L167.732 169.011L152.679 177.862L152.117 176.907Z" fill="#191919"/>
<path d="M133.139 185.413L135.145 184.234C135.383 184.094 135.689 184.174 135.829 184.412L137.009 186.416C137.149 186.654 137.069 186.96 136.831 187.1L134.826 188.279C134.588 188.419 134.282 188.34 134.142 188.102L132.962 186.098C132.822 185.86 132.901 185.553 133.139 185.413Z" stroke="black" stroke-width="0.5" stroke-miterlimit="10"/>
<path d="M109.688 146.687L112.233 148.355C112.367 148.443 112.545 148.346 112.543 148.186L112.503 145.01L112.63 142.273" stroke="black" stroke-width="0.5" stroke-miterlimit="10"/>
<path d="M125.95 127.624L128.537 132.15L119.204 137.691L116.525 133.166L115.416 133.812L118.927 139.815L130.385 133.166L126.874 127.07L125.95 127.624Z" fill="#B3B4B4"/>
<path d="M102.941 300.691C99.245 328.859 100.539 335.508 102.664 336.062C107.284 337.263 121.145 309.372 136.114 283.883C137.5 281.575 140.734 276.126 146.463 270.031C148.034 268.368 149.236 267.26 149.513 266.983C153.579 263.104 159.585 253.869 168.641 231.151L166.885 226.256L137.038 206.585L135.929 205.846C124.933 237.431 113.937 269.015 102.941 300.691Z" fill="url(#paint0_linear_13_279)"/>
<path d="M134.266 210.833C138.424 214.25 144.061 218.314 151.268 221.823C157.182 224.686 162.727 226.533 167.254 227.734C167.624 229.581 167.901 231.52 168.271 233.367C170.766 248.975 171.228 263.658 170.488 277.326C184.257 279.635 200.52 281.482 219.001 281.482C234.802 281.482 248.94 280.282 261.229 278.435C262.338 257.748 263.539 237.061 264.648 216.374C268.437 174.539 265.11 142.493 257.533 130.949C251.897 122.36 244.689 119.497 244.689 119.497C238.683 117.096 232.861 117.835 229.627 118.482C220.109 118.666 212.348 119.59 206.803 120.513C195.345 122.268 185.181 123.93 173.63 129.841C167.254 133.073 161.987 135.844 156.905 141.385C149.328 149.789 148.589 158.008 143.968 176.756C141.936 184.882 138.886 196.611 134.266 210.833Z" fill="#48A2F5"/>
<path opacity="0.2" d="M182.131 175.278C182.131 175.278 173.076 224.686 172.152 226.348C171.967 226.902 171.782 227.364 171.597 227.918C171.135 228.011 170.581 228.011 170.026 228.011C169.01 228.011 168.086 227.918 167.254 227.826C167.994 231.428 168.918 236.23 169.38 240.755C170.119 247.589 170.211 250.36 170.211 250.36C170.211 251.283 170.211 251.56 170.304 251.56C170.766 251.468 173.445 235.214 182.131 175.278Z" fill="black"/>
</g>
<defs>
<linearGradient id="paint0_linear_13_279" x1="168.561" y1="270.962" x2="35.2893" y2="270.962" gradientUnits="userSpaceOnUse">
<stop stop-color="#FFA279"/>
<stop offset="0.3514" stop-color="#F7B390"/>
<stop offset="0.992608" stop-color="#F8BC9C"/>
</linearGradient>
<clipPath id="clip0_13_279">
<rect width="68" height="95.4986" fill="white" transform="matrix(-0.992124 -0.12526 -0.12526 0.992124 230 34.5177)"/>
</clipPath>
</defs>
</svg>
